<svg id="Layer_1" data-name="Layer 1" xmlns="http://www.w3.org/2000/svg" viewBox="0 0 1547.53 646.62"><defs><style>.cls-1,.cls-3{fill:#de1f26;}.cls-2,.cls-5{fill:#010101;}.cls-3,.cls-5{fill-rule:evenodd;}.cls-4{fill:none;stroke:#1a1a18;stroke-miterlimit:2.61;stroke-width:0.22px;}.cls-6{isolation:isolate;}</style></defs><title>logo</title><path class="cls-1" d="M1314.89,182a12.53,12.53,0,0,0-2-2.18,6.78,6.78,0,0,0-2.39-1.73h37a9.69,9.69,0,0,1,4.78,1.69,11.83,11.83,0,0,1,3.91,5.81l16.31,77.83,41.09-75.66a5.7,5.7,0,0,0,1.3-3.14,9.58,9.58,0,0,0-1.3-3.19c-1.31-2.21-3.63-3.34-7-3.34h28.91c1.09,0,2.25,0,3.59-.12s2.06-.12,2.32-.12a3.14,3.14,0,0,1,2.82,1.93,5.91,5.91,0,0,1,1,3.87,7.18,7.18,0,0,1-1,4.11l-93.76,171.41a9.47,9.47,0,0,0-.84,4.35,12.61,12.61,0,0,0,.62,4.07c.11,1.13.9,2.3,2.35,3.63a6.49,6.49,0,0,0,4.21,1.93h-34.13c-4.06,0-6.46-1.13-7.18-3.38-.44-.61-.65-2.54-.65-5.76l32.61-60.19L1319.23,189.4a44.42,44.42,0,0,0-4.34-7.41" transform="translate(-26.23 -34.14)"/><path class="cls-2" d="M289.55,140.86l-5,24.45a5.71,5.71,0,0,1-2.83,5.08c-.87.76-3,1.16-6.52,1.16H242.6c-3.15.09-6.42.21-9.75.41a14.57,14.57,0,0,0-8.44,2.9c-2.28,1.77-3.95,5-5.08,9.79-1.3,5.92-2,10-2,12.28q0,10.33,12,15.27c1.73.57,5.29,1.53,10.58,2.9a132.62,132.62,0,0,1,13.8,4.27,55.5,55.5,0,0,1,11.56,6.13,36.57,36.57,0,0,1,9.89,9.91q4.13,6.28,4.13,22.23a142.35,142.35,0,0,1-2.14,23.65,128.06,128.06,0,0,1-6.19,23.2c-2.68,7.13-5.73,12.45-9.06,16a55.57,55.57,0,0,1-14.49,9.95,46,46,0,0,1-16.35,3.79H157.56c-2.9,0-4.93-1.05-6.05-3.15a13.73,13.73,0,0,1-2.17-6.76l8.91-36.46H161a12.61,12.61,0,0,0-.62,4.07c0,3.18.94,5.6,2.79,7.25a12,12,0,0,0,7.18,2.42c2.28,0,5.87,0,10.79.12s8.63.12,11.2.12q23.64,0,32-3.83,10.59-4.17,12.79-25.14c0-6.08-2.21-10.39-6.63-13s-11.81-5.8-22.21-9.47-18.19-7.93-23.45-12.69-7.93-11.8-7.93-21.19q.81-14.07,1.77-22.39a87.6,87.6,0,0,1,4.17-17.93,72,72,0,0,1,9.53-18.41,55.84,55.84,0,0,1,12.83-12.25q6.9-4.65,20.18-4.67Z" transform="translate(-26.23 -34.14)"/><path class="cls-1" d="M1208.58,196.45l2.39-17.64h69.57a36.17,36.17,0,0,1,10.76,1.33,16.15,16.15,0,0,1,7.5,5.23q6.14,6.78,6.12,17.16a28.29,28.29,0,0,1-1.12,7.7L1284.27,311a50.57,50.57,0,0,0-1.52,11.56c0,4.19.51,7,1.52,8.5a6.1,6.1,0,0,0,5.22,3.15h-39.78a6,6,0,0,1-2.94-1.17,5.41,5.41,0,0,1-2.1-2,17.25,17.25,0,0,1-1.7-6.28l14.56-68.65h-27.17c-5.87,0-10,1.61-12.43,4.84-1.74,2.37-3.62,6.4-5.61,12.12a45.82,45.82,0,0,0-3,14.95q0,4.83,2.18,7.25a11.31,11.31,0,0,1,2.1,1.45,5.62,5.62,0,0,0,2.89,1.45h33.27l-14.17,26.59a22.56,22.56,0,0,1-5.18,5.84c-.11.08-1,.68-2.72,1.85a8,8,0,0,1-4,1.74H1195.1a20.94,20.94,0,0,1-10.58-3.15,18.59,18.59,0,0,1-7.86-8.7c-1.88-4.43-2.82-10.31-2.82-17.68a126.8,126.8,0,0,1,2.93-25.75,182.91,182.91,0,0,1,7.21-25.86c2.86-7.85,5.62-13.57,8.33-17.24q5.28-8.22,25.19-8.22h38.91c3.44,0,5.9-.32,7.43-1a6.81,6.81,0,0,0,2-2.53,9.63,9.63,0,0,0,.79-3.43c.11-1.41.26-2.94.4-4.63a13.81,13.81,0,0,0-1.74-7.49c-.87-1.61-3.11-2.42-6.74-2.42h-39.74a12.44,12.44,0,0,1-7.39-2.66c-1.93-1-2.87-3.34-2.87-7" transform="translate(-26.23 -34.14)"/><path class="cls-1" d="M997.78,181.71q-.81-1.76-4.35-3.39h33.3a3.9,3.9,0,0,1,2.1,1c.91.64,1.34,1.13,1.34,1.41a9.21,9.21,0,0,0,.26,1.41,13,13,0,0,1,.22,2.18l1.7,97,44.35-103h32.17V282.46l38.48-93.74c.18-.53.4-1.37.69-2.54a19.73,19.73,0,0,0,.4-4.47c-1.56-1.77-2.61-2.66-3-2.66a2.53,2.53,0,0,1-1.52-.73h30.87a14.4,14.4,0,0,1,2.47,2.18,4.39,4.39,0,0,1,1.45,2.42,5.63,5.63,0,0,1,.43,2.66,14.4,14.4,0,0,1-1,5.23c-.65,1.65-1.19,2.9-1.63,3.75l-60.25,139.67h-27.58c-4,0-6.52-.65-7.6-1.94-.91-.52-1.53-1.77-1.78-3.7a39.94,39.94,0,0,1-.4-4.76l-.65-86-40.83,96.45h-28.52q-4.73,0-6.52-3.15c-.29-.32-.62-.72-.94-1.12a4.63,4.63,0,0,1-.87-1.66,9.17,9.17,0,0,1-.36-3.06L999.52,188a13.84,13.84,0,0,0-1.74-6.28" transform="translate(-26.23 -34.14)"/><path class="cls-2" d="M955.25,294.55a27.69,27.69,0,0,0,9.09-8.91l-8,36.26a20.48,20.48,0,0,1-6.52,8.42c-2.53,2-6.56,3.3-12,3.91H892.6q-19-1.39-25.22-7.5-9.55-10-9.56-36.78a188.15,188.15,0,0,1,3-32.06,229.1,229.1,0,0,1,8.26-33.12,137.59,137.59,0,0,1,11.74-26.91q6.51-11,13.29-14.46c3-1.49,7.76-2.62,14.28-3.43a192.54,192.54,0,0,1,22-1.16,219.48,219.48,0,0,1,24.49,1.24c7.47.81,12.65,1.94,15.55,3.35Q983,190,983,215.35a130.38,130.38,0,0,1-2,22.88c-1.38,7.49-2.72,13.49-4,17.92-.44,3.39-3.91,5.08-10.47,5.08H895.25q.16,0,2.61-12.33c.5-2.33,1.08-4.67,1.73-7.05s1.17-4.23,1.49-5.52h48.73a53.52,53.52,0,0,0,1.7-12.57q0-17.64-20.87-17.64c-5.57,0-10.14,1-13.69,2.94a21.07,21.07,0,0,0-8.33,8.26,65.62,65.62,0,0,0-5.69,14.1c-1.78,5.88-3.52,11.92-5.29,18.21q-5.28,28.88-5.26,36c0,3.75.59,6.41,1.74,8q2.61,4.59,14.35,4.59h24.78a100.48,100.48,0,0,0,13.16-.6,28.45,28.45,0,0,0,8.84-3.06" transform="translate(-26.23 -34.14)"/><path class="cls-2" d="M806.12,178.57h55.65l-3.73,23a7.65,7.65,0,0,1-1.27,3.06,10.88,10.88,0,0,1-2.17,2.78c-3.16,2.38-6,3.59-8.48,3.59H813.94a47.17,47.17,0,0,0-10.36.88,11.5,11.5,0,0,0-6.6,4.67,87.67,87.67,0,0,0-8.69,20.31,189,189,0,0,0-5.91,25,136,136,0,0,0-2.13,21.64c1.23,7.45,3.18,12.36,5.94,14.74s6.41,3.63,11,3.63c.94,0,2.43,0,4.39-.12s3.47-.12,4.53-.12a168.41,168.41,0,0,0,23.62-1.25c5.54-.81,9.46-2.1,11.78-3.79a15.82,15.82,0,0,0,5.25-7.29L840,322.38c-.73,3.51-2,5.92-3.88,7.25q-5.05,4.59-8.91,4.6h-47a54.41,54.41,0,0,1-20.62-3.59q-16.8-7.86-16.78-36.78c0-3.54.08-6.2.22-8a312.79,312.79,0,0,1,11.38-61.71q8.53-28.77,23.62-38.11a58.16,58.16,0,0,1,28-7.49" transform="translate(-26.23 -34.14)"/><path class="cls-2" d="M632.85,182.67a4.67,4.67,0,0,0-1.48-2.33,11.86,11.86,0,0,0-2.43-2.26h33.7a3.65,3.65,0,0,1,1.48.41c.65.28,1.34.64,2.1,1s1.42.73,1.89,1a9,9,0,0,1,3.87,7.25l-1.05,10.15,7-12.08a8.36,8.36,0,0,1,2-3.06,9,9,0,0,1,3-2.26,15.52,15.52,0,0,1,7.36-2.42H716.8a23.55,23.55,0,0,1,15.44,5.76q6.74,6.82,6.74,17.45a51.7,51.7,0,0,1-1.52,11.11L714.41,320.73a19.24,19.24,0,0,0,1.74,8.18,8.5,8.5,0,0,0,4.78,5.32H683.5q-2.76,0-4.56-3.15c-.58-.64-.83-2-.83-3.86a12.12,12.12,0,0,1,.39-3.15l21.09-100.79c0-4.83-.58-8.14-1.7-9.95-1.3-2.38-5.8-3.59-13.48-3.59q-8.68,0-12.86,2.66c-2.68.89-4.53,3.87-5.62,8.91L642.85,324.07a19,19,0,0,0,.29,3.83,4.5,4.5,0,0,0,.84,1.93c.39.45.72.89,1,1.25a7.2,7.2,0,0,0,2.21,2.06,5.17,5.17,0,0,0,2.57,1.09h-36.3a9.14,9.14,0,0,1-6.06-1.94c-1.73-1.49-2.6-4-2.6-7.73l29.09-133.91a30.47,30.47,0,0,0-1.09-8" transform="translate(-26.23 -34.14)"/><path class="cls-2" d="M570.35,294.55a27.82,27.82,0,0,0,9.1-8.91l-8,36.26a20.57,20.57,0,0,1-6.52,8.42c-2.54,2-6.56,3.3-12,3.91H507.71q-19-1.39-25.22-7.5-9.57-10-9.57-36.78a189.18,189.18,0,0,1,3-32.06,230.41,230.41,0,0,1,8.26-33.12,138.19,138.19,0,0,1,11.74-26.91q6.52-11,13.3-14.46c3-1.49,7.75-2.62,14.27-3.43a192.67,192.67,0,0,1,22-1.16,219.66,219.66,0,0,1,24.5,1.24c7.46.81,12.64,1.94,15.54,3.35q12.55,6.58,12.57,31.95a129.43,129.43,0,0,1-2,22.88,181.29,181.29,0,0,1-4,17.92c-.43,3.39-3.91,5.08-10.47,5.08H510.35q.16,0,2.61-12.33c.51-2.33,1.09-4.67,1.74-7.05s1.16-4.23,1.49-5.52h48.73a54.06,54.06,0,0,0,1.7-12.57q0-17.64-20.87-17.64c-5.58,0-10.15,1-13.7,2.94a21.07,21.07,0,0,0-8.33,8.26,66.14,66.14,0,0,0-5.69,14.1c-1.77,5.88-3.51,11.92-5.29,18.21q-5.26,28.88-5.25,36,0,5.63,1.74,8,2.61,4.59,14.35,4.59h24.78a100.31,100.31,0,0,0,13.15-.6,28.28,28.28,0,0,0,8.84-3.06" transform="translate(-26.23 -34.14)"/><path class="cls-2" d="M428.39,184.12c-1.44-2.65-3-4.26-4.56-4.83h36.31a5.46,5.46,0,0,1,2.86,1.05,5,5,0,0,1,2.1,2.13c.91,1.09,1.34,3.18,1.34,6.25l-26.74,132a25.75,25.75,0,0,1-.22,3.1c-.14,1.25-.22,2.1-.22,2.66a9.4,9.4,0,0,0,.44,3.14c2.14,3.06,4.17,4.6,6.09,4.6H411.87c-2.79,0-4.74-1.05-5.9-3.15-1-1.41-1.52-3.91-1.52-7.49L430.57,195a26.16,26.16,0,0,0-2.18-10.92" transform="translate(-26.23 -34.14)"/><path class="cls-2" d="M354.48,178.57h55.65l-3.73,23a7.5,7.5,0,0,1-1.27,3.06,10.66,10.66,0,0,1-2.17,2.78c-3.15,2.38-6,3.59-8.48,3.59H362.31a47.21,47.21,0,0,0-10.37.88,11.51,11.51,0,0,0-6.59,4.67,87.23,87.23,0,0,0-8.7,20.31,189,189,0,0,0-5.9,25,136.18,136.18,0,0,0-2.14,21.64c1.23,7.45,3.19,12.36,5.94,14.74s6.42,3.63,11,3.63c.94,0,2.43,0,4.38-.12s3.48-.12,4.53-.12a168.47,168.47,0,0,0,23.63-1.25c5.54-.81,9.45-2.1,11.77-3.79a15.75,15.75,0,0,0,5.25-7.29l-6.73,33.11c-.73,3.51-2,5.92-3.88,7.25q-5.06,4.59-8.92,4.6h-47A54.36,54.36,0,0,1,308,330.64q-16.8-7.86-16.78-36.78,0-5.31.22-8a313.53,313.53,0,0,1,11.37-61.71q8.54-28.77,23.63-38.11a58.12,58.12,0,0,1,28-7.49" transform="translate(-26.23 -34.14)"/><path class="cls-3" d="M452.51,107.93c-.22.14-21.62,32.42-21.67,32.51-7.39,15.08,1.15,30.62,16.48,31.67,14.49,1,26-12.8,20.83-28.52-7.59-16.1-11.2-21.78-15.64-35.66m-17.18,31.61c2.54-5.91-2.19,9.65,3,17.89,2.65,4.2,10.13,4.84,9.57,8.4-.3,1.9-1.1,2.23-2.76,2.19-6.09-.17-9.74-5.5-11.43-9.52C430.66,151.19,432.72,146,435.33,139.54Z" transform="translate(-26.23 -34.14)"/><path class="cls-3" d="M386,143.91c0-33,27.26-59.77,60.88-59.77s60.88,26.76,60.88,59.77h50.82c0-60.57-50-109.67-111.7-109.67s-111.7,49.1-111.7,109.67Z" transform="translate(-26.23 -34.14)"/><path class="cls-4" d="M386,143.91c0-33,27.26-59.77,60.88-59.77s60.88,26.76,60.88,59.77h50.82c0-60.57-50-109.67-111.7-109.67s-111.7,49.1-111.7,109.67Z" transform="translate(-26.23 -34.14)"/><path class="cls-2" d="M1011,443.91l-1.09-65.62h16.48l-1.67,44.2,14.55-44.2h17.81l-28.27,72.77c-2.7,6.87-5.34,11.34-8,13.44s-6.17,3.13-10.72,3.13a35.34,35.34,0,0,1-5.15-.41c-1.9-.25-4-.67-6.39-1.19l2.53-13c1.13.23,2,.39,2.73.49a12.88,12.88,0,0,0,1.67.13c2.1,0,3.55-.55,4.32-1.62s1.16-3.3,1.16-6.63Zm-45.26-8.27a20.6,20.6,0,0,1-5.91,5.11,14,14,0,0,1-6.76,1.61q-6.48,0-9.67-3.9t-3.19-11.84a85,85,0,0,1,1.21-13.55,153,153,0,0,1,3.51-15.93c2.11-7.7,4.49-13,7.17-16a13.57,13.57,0,0,1,10.65-4.47,13,13,0,0,1,7.89,2.3q3.17,2.28,5.61,7.54l1.67-8.19h16.39l-11.22,56.19-.28,1.37q-3.64,18.72-7.4,23.65a21.23,21.23,0,0,1-8,6.54,26.37,26.37,0,0,1-11,2.06q-10.63,0-16.2-4.33t-5.55-12.58c0-.19,0-.51.05-1s.06-.74.06-.94h16.38c0,.24-.07.45-.09.69s0,.55,0,1a5.69,5.69,0,0,0,1.21,4,4.67,4.67,0,0,0,3.61,1.31,5.7,5.7,0,0,0,5-2.41q1.7-2.42,3.52-11.82Zm-5.54-29-1.56,6.84c-.38,2-.69,3.82-.93,5.5a31.08,31.08,0,0,0-.35,4.25,6.9,6.9,0,0,0,1.21,4.33,3.91,3.91,0,0,0,3.3,1.59,5,5,0,0,0,4.5-2.72c1.13-1.83,2.24-5.55,3.4-11.17l1.56-8c.38-1.89.69-3.61.87-5.18a30.05,30.05,0,0,0,.3-3.9,7.28,7.28,0,0,0-1.21-4.5,4.12,4.12,0,0,0-3.5-1.59,4.58,4.58,0,0,0-4.07,2.61C962.68,396.51,961.51,400.49,960.17,406.68Zm-85,21a64.35,64.35,0,0,1,.64-8c.44-3.21,1.06-6.84,1.89-10.89q1.23-6.33,2.65-11.33A48.64,48.64,0,0,1,883,390c2.25-4.82,5.07-8.25,8.45-10.33s7.95-3.09,13.66-3.09q10,0,15.42,4.89t5.37,14a58.4,58.4,0,0,1-.62,7.72c-.41,3.1-1,6.62-1.8,10.6-1,4.82-1.94,8.84-2.82,12.07a51.4,51.4,0,0,1-2.44,7.33q-3.27,7.17-8.41,10.23c-3.41,2.05-8,3.07-13.82,3.07q-10,0-15.39-4.88T875.2,427.64Zm21-23.61-2.4,11.88c-.55,2.6-1,4.92-1.25,6.91a38.48,38.48,0,0,0-.42,4.51,7.15,7.15,0,0,0,1.17,4.49,4.24,4.24,0,0,0,3.54,1.49,5.32,5.32,0,0,0,4.68-2.45c1.06-1.63,2.23-5.63,3.48-12L907.31,407c.56-2.86,1-5.27,1.3-7.19a30.16,30.16,0,0,0,.46-4.21,7.26,7.26,0,0,0-1.18-4.55,4.27,4.27,0,0,0-3.54-1.48,5.26,5.26,0,0,0-4.67,2.46C898.62,393.69,897.44,397.69,896.2,404Zm-62.34,40.68,17.5-88.4h17.25L851,444.71Zm-61.68-17.07a64.35,64.35,0,0,1,.64-8c.44-3.21,1.06-6.84,1.89-10.89q1.23-6.33,2.66-11.33A49,49,0,0,1,780,390c2.26-4.82,5.08-8.25,8.46-10.33s8-3.09,13.67-3.09c6.69,0,11.84,1.62,15.41,4.89s5.37,8,5.37,14a58.4,58.4,0,0,1-.62,7.72c-.41,3.1-1,6.62-1.8,10.6-1,4.82-1.94,8.84-2.82,12.07a51.4,51.4,0,0,1-2.44,7.33q-3.27,7.17-8.41,10.23c-3.41,2.05-8,3.07-13.82,3.07q-10,0-15.39-4.88T772.18,427.64Zm21-23.61-2.4,11.88c-.55,2.6-.95,4.92-1.25,6.91a38.48,38.48,0,0,0-.42,4.51,7.14,7.14,0,0,0,1.18,4.49,4.21,4.21,0,0,0,3.53,1.49,5.32,5.32,0,0,0,4.68-2.45c1.06-1.63,2.23-5.63,3.48-12L804.29,407c.56-2.86,1-5.27,1.3-7.19a30.16,30.16,0,0,0,.46-4.21,7.26,7.26,0,0,0-1.18-4.55,4.26,4.26,0,0,0-3.53-1.48,5.26,5.26,0,0,0-4.68,2.46C795.6,393.69,794.43,397.69,793.18,404ZM704,444.71l13.21-66.42h15.36l-1.19,6.48a27.32,27.32,0,0,1,7.17-6,15.57,15.57,0,0,1,7.44-1.88q5.85,0,9.2,3.49t3.35,9.58a47.66,47.66,0,0,1-.37,5.39c-.25,2.07-.62,4.21-1.08,6.42l-8.57,42.95H731.37l9.24-46.46a14,14,0,0,0,.25-1.62c.06-.57.08-1.31.08-2.27a4.42,4.42,0,0,0-.94-3.08,3.84,3.84,0,0,0-2.93-1,5.18,5.18,0,0,0-4.56,2.82q-1.71,2.79-3.12,10l-8.26,41.63Zm-65.55,0L656,356.31h17.24L667.82,383a15.83,15.83,0,0,1,5.74-4.62,18,18,0,0,1,7.57-1.51,11,11,0,0,1,8.57,3.6A13.59,13.59,0,0,1,693,390a47.41,47.41,0,0,1-.36,5.39c-.26,2.07-.63,4.21-1.08,6.42L683,444.71H665.82l9.24-46.46a16.18,16.18,0,0,0,.26-1.6c0-.53.07-1.29.07-2.29a4.41,4.41,0,0,0-.93-3.08,3.88,3.88,0,0,0-2.94-1,5.09,5.09,0,0,0-4.45,2.72c-1.15,1.83-2.22,5.18-3.23,10.08l-8.26,41.63Zm-13.62-26.1c-1.78,10.13-4.72,17.3-8.75,21.53s-10,6.33-17.77,6.33c-6.69,0-11.84-1.62-15.42-4.9s-5.37-7.95-5.37-14a55.86,55.86,0,0,1,.63-7.41q.6-4.53,1.91-10.91c1-4.75,1.88-8.72,2.78-12A53.16,53.16,0,0,1,585.3,390c2.26-4.82,5.1-8.25,8.51-10.33s8-3.09,13.72-3.09q9.93,0,15.31,5c3.57,3.31,5.37,8,5.37,14.09,0,1.22,0,2.43-.13,3.64a31.53,31.53,0,0,1-.46,3.53H611c.29-1.84.48-3.25.59-4.23a24.86,24.86,0,0,0,.16-2.71,7.18,7.18,0,0,0-1.32-4.6,4.49,4.49,0,0,0-3.72-1.62,5.23,5.23,0,0,0-4.62,2.42c-1.06,1.63-2.25,5.63-3.53,12l-2.4,11.9c-.59,2.92-1,5.37-1.32,7.38a30.34,30.34,0,0,0-.46,4.28,6.7,6.7,0,0,0,1.17,4.25,4,4,0,0,0,3.34,1.49,6.05,6.05,0,0,0,5.4-3q1.93-3.06,3.49-11.66ZM534.22,403h13.06c.31-1.77.57-3.29.73-4.59a22.8,22.8,0,0,0,.28-3.15,7.9,7.9,0,0,0-1.39-5.12,4.88,4.88,0,0,0-4-1.72,5.81,5.81,0,0,0-5.24,2.9C536.43,393.24,535.28,397.12,534.22,403Zm25.18,19.16q-2.1,12.72-8.16,18.53T534,446.47c-6.69,0-11.84-1.62-15.41-4.88s-5.38-7.93-5.38-14a54.21,54.21,0,0,1,.63-7.41q.6-4.53,1.9-10.91c1-4.75,2-8.72,2.82-12a44.6,44.6,0,0,1,2.5-7.32c2.25-4.82,5.07-8.25,8.48-10.33s8-3.09,13.69-3.09q10.15,0,15.42,5.05t5.26,14.68a55.36,55.36,0,0,1-.65,7.23c-.44,3-1.09,6.52-2,10.65H531.91l-1.18,5.65q-.5,2.23-.75,4.23a26.47,26.47,0,0,0-.27,3.53,6.87,6.87,0,0,0,1.32,4.62,5,5,0,0,0,4,1.49,5.85,5.85,0,0,0,5.11-2.69q1.88-2.67,2.77-8.83Zm-92.86,22.57,14.08-71H464.45l3.48-17.4H519l-3.42,17.4H500.15l-14.07,71Z" transform="translate(-26.23 -34.14)"/><polygon class="cls-5" points="342.33 67.44 346.42 80.11 359.74 80.09 348.95 87.9 353.09 100.56 342.33 92.71 331.56 100.56 335.71 87.9 324.91 80.09 338.24 80.11 342.33 67.44"/><polygon class="cls-5" points="423.41 11.74 427.5 24.42 440.82 24.4 430.03 32.21 434.17 44.87 423.41 37.02 412.64 44.87 416.79 32.21 405.99 24.4 419.32 24.42 423.41 11.74"/><polygon class="cls-5" points="367.89 27.71 371.98 40.39 385.3 40.36 374.51 48.17 378.65 60.83 367.89 52.98 357.12 60.83 361.27 48.17 350.47 40.36 363.8 40.39 367.89 27.71"/><polygon class="cls-5" points="478.18 28.6 482.27 41.27 495.59 41.25 484.8 49.06 488.94 61.72 478.18 53.87 467.41 61.72 471.55 49.06 460.76 41.25 474.08 41.27 478.18 28.6"/><polygon class="cls-5" points="499.4 69.78 503.49 82.46 516.82 82.44 506.02 90.25 510.17 102.91 499.4 95.06 488.64 102.91 492.78 90.25 481.99 82.44 495.31 82.46 499.4 69.78"/><g class="cls-6"><path class="cls-1" d="M88,485.29q10.42,0,17.08,2.81t9.86,7.28a16.47,16.47,0,0,1,3.16,10,22.91,22.91,0,0,1-3,10.89,14,14,0,0,1-3.67,4.18,21.33,21.33,0,0,1-5.16,2.93,31.15,31.15,0,0,1-6.08,1.72,36.1,36.1,0,0,1-6.31.57,31.7,31.7,0,0,1-4.35-.28,23.17,23.17,0,0,1-3.9-.87l-.11-.23A23.12,23.12,0,0,0,92,518.6a24.69,24.69,0,0,0,3.79-6.88A21.2,21.2,0,0,0,97,504.5,17.2,17.2,0,0,0,95.71,498a12.62,12.62,0,0,0-3.49-4.82A9.28,9.28,0,0,0,86.71,491a21,21,0,0,0-9,1.2,22,22,0,0,0-7.27,4.53,29.81,29.81,0,0,0-5.57,7.05,49.92,49.92,0,0,0-4,8.65,9.11,9.11,0,0,0,0,6.71,14.62,14.62,0,0,0,4.18,5.4,38.54,38.54,0,0,0,7,4.58q4.07,2.11,8.31,4.24t8.2,4.36a29,29,0,0,1,6.65,5,14.39,14.39,0,0,1,3.61,6.2,12.23,12.23,0,0,1-.8,7.74,24.64,24.64,0,0,1-5.51,8,31.65,31.65,0,0,1-9.74,6.41,56.24,56.24,0,0,1-14.22,3.9,88.29,88.29,0,0,1-18.81.58A35.29,35.29,0,0,1,39,573.36a22,22,0,0,1-7.17-4.59,17.26,17.26,0,0,1-4-6,22.5,22.5,0,0,1-1.49-6.6,20.49,20.49,0,0,1,.52-6.42,19.51,19.51,0,0,1,2-5.27,3.06,3.06,0,0,1,1.38-1.26,3.81,3.81,0,0,1,1.6-.34,2.2,2.2,0,0,1,1.61.57c.38.38.38,1,0,1.72a5.65,5.65,0,0,0,0,6,13.94,13.94,0,0,0,5.27,4.65,32.44,32.44,0,0,0,8.2,3,44.1,44.1,0,0,0,8.89,1.2h6a51.31,51.31,0,0,0,8.25-.69,26.56,26.56,0,0,0,7.8-2.46,8.83,8.83,0,0,0,4.7-5.34,4.39,4.39,0,0,0-1-4.58,16.78,16.78,0,0,0-5.33-3.55,69.74,69.74,0,0,0-8.09-3q-4.57-1.44-9.4-3.1a86.9,86.9,0,0,1-9.17-3.73,27.25,27.25,0,0,1-7.34-4.93,14.28,14.28,0,0,1-4-6.76q-1-3.9.8-9.17a37.58,37.58,0,0,1,16.91-20.13Q68.14,485.3,88,485.29Z" transform="translate(-26.23 -34.14)"/><path class="cls-1" d="M153.79,548.36a1.52,1.52,0,0,1,1-.69.83.83,0,0,1,.8.63,2.43,2.43,0,0,1-.35,1.78c-.45.84-1.07,2-1.83,3.49a48.94,48.94,0,0,1-2.87,4.82,47.1,47.1,0,0,1-4.19,5.33,28.7,28.7,0,0,1-5.78,4.93,33.07,33.07,0,0,1-7.51,3.61,29.45,29.45,0,0,1-9.58,1.44q-8.14,0-12-3.73a14,14,0,0,1-4.36-9.23,28.3,28.3,0,0,1,1.95-12,41.4,41.4,0,0,1,6.94-12,42.21,42.21,0,0,1,10.61-9.23,24.41,24.41,0,0,1,13-3.73,11.37,11.37,0,0,1,7.28,2.24,10.91,10.91,0,0,1,3.78,5.62,13.1,13.1,0,0,1-.12,7.28,16.66,16.66,0,0,1-4.35,7.22,25.66,25.66,0,0,1-8.89,5.57,36,36,0,0,1-13.76,2.12,13.19,13.19,0,0,0,1.89,8c1.42,2.17,4,3.26,7.74,3.26s7.23-1.47,10.67-4.41A51.73,51.73,0,0,0,153.79,548.36Zm-14.21-19.84a7.91,7.91,0,0,0-4.71,1.83,22.45,22.45,0,0,0-4.53,4.82,39.08,39.08,0,0,0-3.78,6.71,43.35,43.35,0,0,0-2.58,7.51,23.56,23.56,0,0,0,9.69-4.93,27.33,27.33,0,0,0,6-7,13.71,13.71,0,0,0,2.07-6.24C141.73,529.42,141,528.52,139.58,528.52Z" transform="translate(-26.23 -34.14)"/><path class="cls-1" d="M205.27,550.08a3.59,3.59,0,0,1,1.09-1.49,1.37,1.37,0,0,1,1.09-.35c.31.08.5.37.58.86a3.5,3.5,0,0,1-.58,2,68.86,68.86,0,0,1-5,8.6,49,49,0,0,1-6,7.28,29.7,29.7,0,0,1-6.76,5,15.57,15.57,0,0,1-7.34,1.89q-8,0-11.35-4.31t-1.15-12.21a37.07,37.07,0,0,1,2.58-6.13,67.55,67.55,0,0,0,3.21-7.28,16.23,16.23,0,0,0,1.2-6.25q-.11-2.7-3.44-3.16a7.28,7.28,0,0,0-3.26.35,12.1,12.1,0,0,0-4,2.41,40,40,0,0,0-4.93,5.21,106.74,106.74,0,0,0-6.31,8.89c-.15.39-.53.58-1.14.58a2,2,0,0,1-1.26-.47.76.76,0,0,1-.12-1.14c1.46-2.44,2.81-5,4.07-7.63a78.7,78.7,0,0,0,3.21-7.62,40.79,40.79,0,0,0,1.84-6.65,8.42,8.42,0,0,0-.17-4.59v-.23h16l.23.23a5.19,5.19,0,0,0-.86,3.73,3.79,3.79,0,0,0,1.84,2.29,10.58,10.58,0,0,0,3.44,1.27,28.68,28.68,0,0,0,3.95.51c1.3.08,2.46.1,3.5.06a7.42,7.42,0,0,1,1.89.06v.22a18.55,18.55,0,0,0-3,4.82,43.5,43.5,0,0,0-2.12,6,50.53,50.53,0,0,0-1.32,6c-.31,2-.5,3.58-.58,4.88a34,34,0,0,0,0,3.78,7.82,7.82,0,0,0,.75,3,4.4,4.4,0,0,0,1.89,2,7.21,7.21,0,0,0,3.44.69,7.75,7.75,0,0,0,4.19-1.61,32.66,32.66,0,0,0,4.53-3.78,50.85,50.85,0,0,0,3.89-4.36A15.3,15.3,0,0,0,205.27,550.08Z" transform="translate(-26.23 -34.14)"/><path class="cls-1" d="M258.82,548.93c.53-.84,1.11-1.26,1.72-1.26a1.21,1.21,0,0,1,1.15.63,1.49,1.49,0,0,1-.23,1.54,49.1,49.1,0,0,1-6.94,9.18,12.15,12.15,0,0,1-9,3.67c-3.74,0-6.31-1.33-7.68-4a60.47,60.47,0,0,1-9.92,10.6q-5.22,4.31-10.15,4.42a15.64,15.64,0,0,1-6.88-1.44,10.47,10.47,0,0,1-4.64-4.24,15.86,15.86,0,0,1-2-6.82,27.4,27.4,0,0,1,1-9.17c.54-1.91,1.28-4.19,2.24-6.83s1.87-5.27,2.75-7.91,1.61-5.16,2.18-7.56a15.76,15.76,0,0,0,.52-5.8l.45-.23h24.2v.46a30.24,30.24,0,0,0-4.93,3.73,56.48,56.48,0,0,0-6.48,6.82,50.55,50.55,0,0,0-5.79,8.95,25.58,25.58,0,0,0-2.86,10.09c-.24,2.83.17,5,1.2,6.48a5.21,5.21,0,0,0,3.84,2.46q3.33.34,6.94-2.93a40.37,40.37,0,0,0,6.82-8.31,33.87,33.87,0,0,1,.8-7.05,55.45,55.45,0,0,1,2.06-7.22,58.72,58.72,0,0,1,2.81-6.54,34.12,34.12,0,0,1,3-5,4.93,4.93,0,0,1,2.24-1.6,7.73,7.73,0,0,1,2.58-.46,7.9,7.9,0,0,1,2.75.51,2.06,2.06,0,0,1,1.38,2.13,5.67,5.67,0,0,1-.06.68,3,3,0,0,1-.29.92,44.58,44.58,0,0,1-2.69,8.08,101,101,0,0,1-5.45,11,8.43,8.43,0,0,0,.75,5q1.08,2.13,4.64,2.35a6.1,6.1,0,0,0,2.7-.34,7.47,7.47,0,0,0,2.17-1.26,10.7,10.7,0,0,0,1.72-1.78Q258.25,549.84,258.82,548.93Z" transform="translate(-26.23 -34.14)"/><path class="cls-1" d="M290.23,524.16a18.23,18.23,0,0,0-4.69,4.19A70.28,70.28,0,0,0,279.8,536a102.16,102.16,0,0,0-5.33,9.12,38.23,38.23,0,0,0-3.38,8.66q-.91,4,.69,6.59c1.06,1.72,3.17,2.65,6.3,2.81a10.24,10.24,0,0,0,5.79-1.5,21.9,21.9,0,0,0,4.82-3.84,34.52,34.52,0,0,0,3.61-4.41,19.5,19.5,0,0,0,1.95-3.32,3.5,3.5,0,0,1,1.09-1.49,1.29,1.29,0,0,1,1-.35c.27.08.42.37.46.86a3.9,3.9,0,0,1-.63,2,75.57,75.57,0,0,1-5.16,8.6A48.33,48.33,0,0,1,284.9,567a29.68,29.68,0,0,1-6.93,5,16.48,16.48,0,0,1-7.57,1.89,15.24,15.24,0,0,1-7.11-1.61,12.77,12.77,0,0,1-4.93-4.42,15.41,15.41,0,0,1-2.29-6.7,22.15,22.15,0,0,1,.8-8.49,25.19,25.19,0,0,1,1.61-4.47q1.14-2.52,2.46-5.28c.88-1.82,1.76-3.66,2.64-5.5s1.64-3.61,2.29-5.33a29.82,29.82,0,0,0,1.38-4.7,6.23,6.23,0,0,0-.17-3.5l.57-.23h22.58ZM286,499.4a10,10,0,0,1,5.74,1.37,5.46,5.46,0,0,1,2.35,3.5,8.16,8.16,0,0,1-.58,4.58,13.34,13.34,0,0,1-3.09,4.59,17.39,17.39,0,0,1-5.16,3.5,16,16,0,0,1-6.71,1.37,5.77,5.77,0,0,1-4.24-1.37,5.11,5.11,0,0,1-1.49-3.5,10.89,10.89,0,0,1,.86-4.59,17,17,0,0,1,2.75-4.58,15.15,15.15,0,0,1,4.24-3.5A10.74,10.74,0,0,1,286,499.4Z" transform="translate(-26.23 -34.14)"/><path class="cls-1" d="M340.69,550.08c-.46.84-1.07,2-1.84,3.49a43.09,43.09,0,0,1-2.92,4.82,53,53,0,0,1-4.24,5.33,30.12,30.12,0,0,1-5.73,4.93,31.42,31.42,0,0,1-7.57,3.61,30,30,0,0,1-9.57,1.44q-6.09,0-9.7-2.13A12,12,0,0,1,294,565.9a16.55,16.55,0,0,1-1.21-8,32.12,32.12,0,0,1,2.18-9.17,45,45,0,0,1,4.93-9.18,44.1,44.1,0,0,1,7.16-8,35.6,35.6,0,0,1,8.84-5.68,24.12,24.12,0,0,1,9.91-2.12c3.83,0,6.67.69,8.55,2.07a11.5,11.5,0,0,1,3.95,4.81,14,14,0,0,1,1.09,5.62,42.68,42.68,0,0,1-.28,4.47,2.42,2.42,0,0,1-1.61,1.84,8.38,8.38,0,0,1-3.22.57,15.73,15.73,0,0,1-3-.29,10.32,10.32,0,0,1-2.58-.8,2.85,2.85,0,0,1-1.43-1.2,1.1,1.1,0,0,1,.34-1.37,11.77,11.77,0,0,0,3.32-8.49,6.21,6.21,0,0,0-1.2-3.5,4,4,0,0,0-3.38-1.44q-2.76,0-5.8,2.87a31.63,31.63,0,0,0-5.56,7.23,49.34,49.34,0,0,0-4.18,9.4,28.81,28.81,0,0,0-1.6,9.4,12.07,12.07,0,0,0,2.17,7.23q2.13,2.86,7.05,2.86,5.51,0,10.67-4.41a52,52,0,0,0,10-12.21c.38-.46.72-.69,1-.69a.93.93,0,0,1,.86.63A2.17,2.17,0,0,1,340.69,550.08Z" transform="translate(-26.23 -34.14)"/><path class="cls-1" d="M383.57,548.36c.38-.46.73-.69,1-.69a.83.83,0,0,1,.81.63,2.43,2.43,0,0,1-.35,1.78c-.46.84-1.07,2-1.83,3.49a48.94,48.94,0,0,1-2.87,4.82,47.1,47.1,0,0,1-4.19,5.33,29,29,0,0,1-5.78,4.93,33.14,33.14,0,0,1-7.52,3.61,29.35,29.35,0,0,1-9.57,1.44q-8.15,0-12-3.73a14,14,0,0,1-4.36-9.23,28.3,28.3,0,0,1,2-12,41.4,41.4,0,0,1,6.94-12,42.21,42.21,0,0,1,10.61-9.23,24.4,24.4,0,0,1,13-3.73,11.38,11.38,0,0,1,7.29,2.24,10.91,10.91,0,0,1,3.78,5.62,13.1,13.1,0,0,1-.12,7.28,16.66,16.66,0,0,1-4.35,7.22,25.66,25.66,0,0,1-8.89,5.57,36,36,0,0,1-13.76,2.12,13.19,13.19,0,0,0,1.89,8c1.42,2.17,4,3.26,7.74,3.26s7.23-1.47,10.67-4.41A51.73,51.73,0,0,0,383.57,548.36Zm-14.22-19.84a7.88,7.88,0,0,0-4.7,1.83,22.21,22.21,0,0,0-4.53,4.82,39.08,39.08,0,0,0-3.78,6.71,43.35,43.35,0,0,0-2.58,7.51,23.56,23.56,0,0,0,9.69-4.93,27.33,27.33,0,0,0,6-7,13.83,13.83,0,0,0,2.07-6.24Q371.53,528.52,369.35,528.52Z" transform="translate(-26.23 -34.14)"/></g><g class="cls-6"><path class="cls-1" d="M421.75,549.84a2.84,2.84,0,0,1-2-1,2.94,2.94,0,0,1-.75-2,2.63,2.63,0,0,1,.75-1.84,2.43,2.43,0,0,1,1.89-.8l6.76-.12q6.32-.23,14.1-.23,4,0,6.55.12a3.05,3.05,0,0,1,1.82,1,2.85,2.85,0,0,1,.7,2,2.8,2.8,0,0,1-.92,1.95,2.91,2.91,0,0,1-1.95.69c-1.69-.08-3.82-.12-6.42-.12l-11.7.12Z" transform="translate(-26.23 -34.14)"/></g><path class="cls-1" d="M530.91,549.39c1.07-1.91,2-2.66,2.75-2.24s.69,1.51-.23,3.27a51.75,51.75,0,0,1-3.9,5.9,59.47,59.47,0,0,1-5.79,6.65,62.19,62.19,0,0,1-6.88,6,26.77,26.77,0,0,1-7.28,3.95,13.27,13.27,0,0,1-3.78.69c-1.46.07-2.6.12-3.44.12h-1.27a13,13,0,0,1-6.3-1.32,9.69,9.69,0,0,1-3.67-3.33,11.06,11.06,0,0,1-1.61-4.47,19.25,19.25,0,0,1-.11-4.65,26.27,26.27,0,0,1,.68-3.89,10.3,10.3,0,0,1,.81-2.29c.61-1.15,1-1.53,1.15-1.15a5.7,5.7,0,0,1,.11,2.17,8.92,8.92,0,0,0,.4,4.25,3.58,3.58,0,0,0,1.84,1.89,6.49,6.49,0,0,0,2.81.46c1.06,0,2.17,0,3.32.06a9.63,9.63,0,0,0,4.07-.63,9.91,9.91,0,0,0,3.27-2.07,10.27,10.27,0,0,0,2.18-3,8.58,8.58,0,0,0,.8-3.66,4.16,4.16,0,0,0-1.49-3,27.76,27.76,0,0,0-3.61-2.87c-1.42-1-2.89-1.93-4.42-2.92a24.85,24.85,0,0,1-4-3.21c-1.07,1.29-2.29,2.87-3.67,4.69s-2.9,4.1-4.58,6.77c-.16.39-.54.58-1.15.58a2,2,0,0,1-1.27-.47.75.75,0,0,1-.1-1.14,56.75,56.75,0,0,0,3.44-6.08q1.49-3.09,2.63-5.84t1.95-5a26.87,26.87,0,0,1,1.49-3.5v-.23q2.4-4.35,5.74-5.33a28.17,28.17,0,0,1,7.9-1,41,41,0,0,1,6.25.46,11.78,11.78,0,0,1,4.19,1.26c.38.23.44.7.17,1.38s-.67,1-1.2.92a4.09,4.09,0,0,0-1.84-.06,12,12,0,0,0-1.6.4,7,7,0,0,0-3,2.3,8.43,8.43,0,0,0-1.61,4.24,8,8,0,0,0,1.38,5.5c1.15,1.76,2.42,3.58,3.84,5.45a33.73,33.73,0,0,1,3.67,6.13,12.46,12.46,0,0,1,.74,7.68,15.67,15.67,0,0,0,2.92-1.94c1-.85,2-1.72,3-2.64s1.81-1.84,2.58-2.75A17.29,17.29,0,0,0,530.91,549.39Z" transform="translate(-26.23 -34.14)"/><path class="cls-1" d="M601.66,550.08a3.49,3.49,0,0,1,1.08-1.49,1.32,1.32,0,0,1,1-.35c.26.08.41.35.45.8a4.41,4.41,0,0,1-.63,2.07,64.64,64.64,0,0,1-5,8.6,47.42,47.42,0,0,1-6.19,7.28,30.88,30.88,0,0,1-7,5,16.25,16.25,0,0,1-7.45,1.89q-6.76,0-10.72-4.19t-3.61-11.29a71.06,71.06,0,0,1-4.59,6,39,39,0,0,1-5,4.93,22.61,22.61,0,0,1-5.56,3.32,16.11,16.11,0,0,1-6.25,1.21c-4.51,0-7.75-1.27-9.75-3.79a15.31,15.31,0,0,1-3.09-9.4,34.51,34.51,0,0,1,2.24-12.21A48,48,0,0,1,538,536.31a41.46,41.46,0,0,1,9.34-9.4,18.5,18.5,0,0,1,10.9-3.78,16.94,16.94,0,0,1,9.74,2.58,22.24,22.24,0,0,1,5.85,5.56,20.28,20.28,0,0,0,1-4.18,5.86,5.86,0,0,0-.34-3.16l.57-.23h22.82v.46a18.24,18.24,0,0,0-4.7,4.19,74.41,74.41,0,0,0-5.79,7.62,85.91,85.91,0,0,0-5.33,9.12,39.31,39.31,0,0,0-3.33,8.66q-.91,4,.64,6.59c1,1.72,3.1,2.65,6.24,2.81a10.26,10.26,0,0,0,5.79-1.5,22.14,22.14,0,0,0,4.82-3.84,31.48,31.48,0,0,0,3.55-4.41A21.35,21.35,0,0,0,601.66,550.08ZM549,562.46a9.11,9.11,0,0,0,5.1-1.32,22.37,22.37,0,0,0,4.76-3.78,41.68,41.68,0,0,0,4.42-5.45q2.12-3.1,4-6.31c.85-1.91,1.74-3.82,2.7-5.73s1.82-3.86,2.58-5.85a10.85,10.85,0,0,0-3-2.23,11.13,11.13,0,0,0-5.16-1,8.57,8.57,0,0,0-5.34,2.35,32.07,32.07,0,0,0-5.33,5.85,53.93,53.93,0,0,0-4.53,7.57,37.84,37.84,0,0,0-2.86,7.57A13,13,0,0,0,546,560,2.92,2.92,0,0,0,549,562.46Z" transform="translate(-26.23 -34.14)"/><path class="cls-1" d="M633.18,512.7q-2.62,5-5.16,10.32t-4.53,10.09q-2,4.8-3.49,8.83a58.41,58.41,0,0,0-2.07,6.42,45.09,45.09,0,0,0-.74,4.59,17.47,17.47,0,0,0,.06,4.75,8.31,8.31,0,0,0,1.49,3.78,4.4,4.4,0,0,0,3.55,1.67,10.55,10.55,0,0,0,5.79-1.5,23.23,23.23,0,0,0,5-3.84,34.11,34.11,0,0,0,3.78-4.41,18.19,18.19,0,0,0,2-3.32,3.5,3.5,0,0,1,1.09-1.49,1.28,1.28,0,0,1,1-.35c.27.08.42.37.46.86a3.9,3.9,0,0,1-.63,2,67.51,67.51,0,0,1-5.1,8.71,43.41,43.41,0,0,1-6.37,7.4,31.63,31.63,0,0,1-7.22,5,15,15,0,0,1-7.69,1.67,13.63,13.63,0,0,1-7.62-2.59,14.31,14.31,0,0,1-4.7-6,21.09,21.09,0,0,1-1.61-8.08,24,24,0,0,1,1.67-8.94,52.63,52.63,0,0,1,2.69-5.8q1.89-3.6,4.3-8.37c1.61-3.16,3.29-6.63,5-10.37s3.36-7.68,4.81-11.81H608.65c-3.29,0-6.19.07-8.71.23l3.54-9.52c2.45.84,5.09,1.63,7.92,2.35s5.89,1.36,9.17,1.89q.91-3.21,1.67-6.71a65.44,65.44,0,0,0,1.08-6.93l.46-.23h22.13v.46a53.44,53.44,0,0,0-5,6.42q-2.48,3.66-5.11,8.14a74.24,74.24,0,0,0,8.95-1,37.13,37.13,0,0,0,8.37-2.46L649,516a44.23,44.23,0,0,0-7-1.95Q638,513.27,633.18,512.7Z" transform="translate(-26.23 -34.14)"/><path class="cls-1" d="M671,524.16a18.24,18.24,0,0,0-4.7,4.19,69,69,0,0,0-5.73,7.62,102.24,102.24,0,0,0-5.34,9.12,38.71,38.71,0,0,0-3.38,8.66q-.92,4,.69,6.59c1.07,1.72,3.18,2.65,6.31,2.81a10.26,10.26,0,0,0,5.79-1.5,22.14,22.14,0,0,0,4.82-3.84,36.31,36.31,0,0,0,3.61-4.41,20.21,20.21,0,0,0,1.95-3.32,3.42,3.42,0,0,1,1.09-1.49,1.28,1.28,0,0,1,1-.35c.26.08.41.37.45.86a3.81,3.81,0,0,1-.63,2,75.57,75.57,0,0,1-5.16,8.6,48.88,48.88,0,0,1-6.13,7.28,29.93,29.93,0,0,1-6.94,5,16.44,16.44,0,0,1-7.56,1.89,15.28,15.28,0,0,1-7.12-1.61,12.74,12.74,0,0,1-4.92-4.42,15.29,15.29,0,0,1-2.3-6.7,22.17,22.17,0,0,1,.81-8.49,25.07,25.07,0,0,1,1.6-4.47c.76-1.68,1.59-3.44,2.46-5.28s1.76-3.66,2.64-5.5,1.65-3.61,2.3-5.33a29.7,29.7,0,0,0,1.37-4.7,6.15,6.15,0,0,0-.17-3.5l.57-.23H671Zm-4.24-24.76a10,10,0,0,1,5.74,1.37,5.44,5.44,0,0,1,2.34,3.5,8.15,8.15,0,0,1-.57,4.58,13.48,13.48,0,0,1-3.09,4.59,17.39,17.39,0,0,1-5.16,3.5,16.07,16.07,0,0,1-6.71,1.37,5.78,5.78,0,0,1-4.25-1.37,5.16,5.16,0,0,1-1.49-3.5,11,11,0,0,1,.86-4.59,17,17,0,0,1,2.75-4.58,15.19,15.19,0,0,1,4.25-3.5A10.71,10.71,0,0,1,666.78,499.4Z" transform="translate(-26.23 -34.14)"/><path class="cls-1" d="M719.07,549.39q1.6-2.86,2.74-2.24c.77.42.7,1.51-.22,3.27a51.75,51.75,0,0,1-3.9,5.9A59.47,59.47,0,0,1,711.9,563a62.19,62.19,0,0,1-6.88,6,26.62,26.62,0,0,1-7.28,3.95,13.21,13.21,0,0,1-3.79.69c-1.45.07-2.59.12-3.44.12h-1.26a13.14,13.14,0,0,1-6.31-1.32,9.73,9.73,0,0,1-3.66-3.33,11,11,0,0,1-1.6-4.47,18.31,18.31,0,0,1-.12-4.65,25,25,0,0,1,.69-3.89,9.92,9.92,0,0,1,.8-2.29c.61-1.15,1-1.53,1.15-1.15a5.7,5.7,0,0,1,.11,2.17,9,9,0,0,0,.4,4.25,3.57,3.57,0,0,0,1.83,1.89,6.56,6.56,0,0,0,2.82.46c1.07,0,2.17,0,3.32.06a9.65,9.65,0,0,0,4.07-.63,10,10,0,0,0,5.45-5.11A8.58,8.58,0,0,0,699,552a4.2,4.2,0,0,0-1.49-3,27.1,27.1,0,0,0-3.61-2.87c-1.42-1-2.89-1.93-4.41-2.92a24.94,24.94,0,0,1-4-3.21c-1.07,1.29-2.29,2.87-3.67,4.69s-2.91,4.1-4.59,6.77c-.15.39-.53.58-1.15.58a2,2,0,0,1-1.25-.47.75.75,0,0,1-.12-1.14,53.51,53.51,0,0,0,3.44-6.08q1.49-3.09,2.64-5.84t2-5a25.55,25.55,0,0,1,1.49-3.5v-.23q2.4-4.35,5.73-5.33a28.37,28.37,0,0,1,7.92-1,41,41,0,0,1,6.24.46,11.65,11.65,0,0,1,4.18,1.26c.39.23.45.7.18,1.38s-.67,1-1.2.92a4.09,4.09,0,0,0-1.84-.06,11.65,11.65,0,0,0-1.6.4,7.16,7.16,0,0,0-3,2.3,8.52,8.52,0,0,0-1.6,4.24,8,8,0,0,0,1.38,5.5q1.71,2.64,3.83,5.45a33.17,33.17,0,0,1,3.67,6.13,12.46,12.46,0,0,1,.75,7.68,16.4,16.4,0,0,0,2.93-1.94c1-.85,2-1.72,3-2.64a36.18,36.18,0,0,0,2.59-2.75A17.29,17.29,0,0,0,719.07,549.39Z" transform="translate(-26.23 -34.14)"/><path class="cls-1" d="M758.73,550.65a5,5,0,0,1,1.44-1.89c.49-.35.9-.42,1.2-.23a1.35,1.35,0,0,1,.52,1.14,4.09,4.09,0,0,1-.63,2.13,61.43,61.43,0,0,1-6.37,10.09A34.84,34.84,0,0,1,748.7,568a19.5,19.5,0,0,1-6,3.1,21,21,0,0,1-5.91.86,8.3,8.3,0,0,1-2-.24,15.81,15.81,0,0,1-1.66-.45,60.14,60.14,0,0,1,2,12.84,37.92,37.92,0,0,1-1.09,11.58,17.4,17.4,0,0,1-4.75,8.37q-3.39,3.21-9.12,3.21-6.88,0-10.78-2.29a12.58,12.58,0,0,1-5.45-6,17,17,0,0,1-1.14-8.2,36,36,0,0,1,2-9q.69-2,2.81-6.48t4.93-10.67q2.82-6.12,6-13.41t6-14.73q2.81-7.45,4.87-14.68a83.64,83.64,0,0,0,2.76-13.3l.45-.23H755v.46a60.21,60.21,0,0,0-5.84,8.14q-3.23,5.16-6.65,11.52t-6.77,13.3q-3.33,6.94-6.31,13.48c0,.15,0,.25.12.28s.11.14.11.29a8.52,8.52,0,0,0,.74,1.83,10.72,10.72,0,0,0,1.84,2.53,11.62,11.62,0,0,0,3,2.23,9.05,9.05,0,0,0,4.36,1,28,28,0,0,0,5.44-.51,14.86,14.86,0,0,0,4.93-2,19.88,19.88,0,0,0,4.53-3.9A32,32,0,0,0,758.73,550.65ZM723.07,593.3a3.79,3.79,0,0,0,3.74-1.72,12.26,12.26,0,0,0,1.72-5.33,41.42,41.42,0,0,0,.05-7.85,84.78,84.78,0,0,0-1.26-9.29,7.91,7.91,0,0,1-1.49-1.09q-.69-.63-1.26-1.2-1.73,4-2.81,7.11c-.73,2.06-1.24,3.67-1.55,4.81-.31,1.38-.63,2.87-1,4.47a19.6,19.6,0,0,0-.45,4.59,7.64,7.64,0,0,0,1,3.73A4,4,0,0,0,723.07,593.3Z" transform="translate(-26.23 -34.14)"/><path class="cls-1" d="M829.71,550.08a3.5,3.5,0,0,1,1.09-1.49,1.3,1.3,0,0,1,1-.35c.26.08.41.35.45.8a4.41,4.41,0,0,1-.63,2.07,63.64,63.64,0,0,1-5,8.6,47.38,47.38,0,0,1-6.18,7.28,31.1,31.1,0,0,1-7,5,16.25,16.25,0,0,1-7.45,1.89q-6.76,0-10.72-4.19t-3.61-11.29a71.06,71.06,0,0,1-4.59,6,39,39,0,0,1-5,4.93,22.61,22.61,0,0,1-5.56,3.32,16.11,16.11,0,0,1-6.25,1.21c-4.51,0-7.75-1.27-9.75-3.79a15.25,15.25,0,0,1-3.09-9.4,34.51,34.51,0,0,1,2.24-12.21A48,48,0,0,1,766,536.31a41.46,41.46,0,0,1,9.34-9.4,18.5,18.5,0,0,1,10.9-3.78,16.94,16.94,0,0,1,9.74,2.58,22.24,22.24,0,0,1,5.85,5.56,20.28,20.28,0,0,0,1-4.18,5.86,5.86,0,0,0-.34-3.16l.57-.23h22.82v.46a18.08,18.08,0,0,0-4.7,4.19,74.41,74.41,0,0,0-5.79,7.62,85.91,85.91,0,0,0-5.33,9.12,39.31,39.31,0,0,0-3.33,8.66,8.74,8.74,0,0,0,.63,6.59c1,1.72,3.11,2.65,6.25,2.81a10.26,10.26,0,0,0,5.79-1.5,22.14,22.14,0,0,0,4.82-3.84,31.48,31.48,0,0,0,3.55-4.41A20.3,20.3,0,0,0,829.71,550.08Zm-52.63,12.38a9.11,9.11,0,0,0,5.1-1.32,22.37,22.37,0,0,0,4.76-3.78,40.84,40.84,0,0,0,4.41-5.45q2.13-3.1,4-6.31c.85-1.91,1.74-3.82,2.7-5.73s1.82-3.86,2.58-5.85a10.85,10.85,0,0,0-3-2.23,11.13,11.13,0,0,0-5.16-1,8.57,8.57,0,0,0-5.34,2.35,32.07,32.07,0,0,0-5.33,5.85,53.93,53.93,0,0,0-4.53,7.57,37.92,37.92,0,0,0-2.87,7.57A13.26,13.26,0,0,0,774,560,2.93,2.93,0,0,0,777.08,562.46Z" transform="translate(-26.23 -34.14)"/><path class="cls-1" d="M876,550.08c-.47.84-1.08,2-1.84,3.49a43.09,43.09,0,0,1-2.92,4.82,53.18,53.18,0,0,1-4.25,5.33,29.51,29.51,0,0,1-5.73,4.93,31.16,31.16,0,0,1-7.56,3.61,30.06,30.06,0,0,1-9.58,1.44c-4.06,0-7.28-.71-9.69-2.13a12.06,12.06,0,0,1-5.16-5.67,16.79,16.79,0,0,1-1.21-8,31.82,31.82,0,0,1,2.19-9.17,45,45,0,0,1,4.93-9.18,43.73,43.73,0,0,1,7.16-8,35.54,35.54,0,0,1,8.83-5.68,24.17,24.17,0,0,1,9.92-2.12q5.73,0,8.54,2.07a11.53,11.53,0,0,1,4,4.81,14,14,0,0,1,1.09,5.62,39.64,39.64,0,0,1-.29,4.47,2.39,2.39,0,0,1-1.6,1.84,8.38,8.38,0,0,1-3.22.57,15.92,15.92,0,0,1-3-.29,10.37,10.37,0,0,1-2.57-.8,2.93,2.93,0,0,1-1.44-1.2,1.12,1.12,0,0,1,.34-1.37,11.73,11.73,0,0,0,3.33-8.49,6.22,6.22,0,0,0-1.21-3.5A4,4,0,0,0,861.7,526q-2.75,0-5.79,2.87a31.63,31.63,0,0,0-5.56,7.23,49.34,49.34,0,0,0-4.18,9.4,28.84,28.84,0,0,0-1.61,9.4,12.14,12.14,0,0,0,2.18,7.23c1.41,1.91,3.77,2.86,7,2.86q5.51,0,10.67-4.41a52,52,0,0,0,10-12.21c.38-.46.72-.69,1-.69a.91.91,0,0,1,.85.63A2.16,2.16,0,0,1,876,550.08Z" transform="translate(-26.23 -34.14)"/><path class="cls-1" d="M905.16,512.7q-2.64,5-5.16,10.32t-4.53,10.09q-2,4.8-3.5,8.83a58,58,0,0,0-2.06,6.42,42.47,42.47,0,0,0-.74,4.59,17.89,17.89,0,0,0,.05,4.75,8.42,8.42,0,0,0,1.49,3.78,4.41,4.41,0,0,0,3.55,1.67,10.61,10.61,0,0,0,5.8-1.5,23.17,23.17,0,0,0,5-3.84,33.34,33.34,0,0,0,3.78-4.41,18.39,18.39,0,0,0,2-3.32,3.41,3.41,0,0,1,1.08-1.49,1.3,1.3,0,0,1,1-.35c.26.08.41.37.45.86a3.9,3.9,0,0,1-.63,2,67.51,67.51,0,0,1-5.1,8.71,43.37,43.37,0,0,1-6.36,7.4,31.69,31.69,0,0,1-7.23,5,14.94,14.94,0,0,1-7.68,1.67,13.69,13.69,0,0,1-7.63-2.59,14.31,14.31,0,0,1-4.7-6,21.08,21.08,0,0,1-1.6-8.08,23.77,23.77,0,0,1,1.66-8.94,54.58,54.58,0,0,1,2.69-5.8q1.9-3.6,4.31-8.37c1.6-3.16,3.28-6.63,5-10.37s3.36-7.68,4.82-11.81H880.62c-3.28,0-6.19.07-8.71.23l3.55-9.52c2.45.84,5.08,1.63,7.91,2.35s5.89,1.36,9.17,1.89c.62-2.14,1.17-4.38,1.67-6.71a63,63,0,0,0,1.09-6.93l.45-.23h22.13v.46a54.48,54.48,0,0,0-5,6.42q-2.46,3.66-5.11,8.14a74.24,74.24,0,0,0,9-1,37,37,0,0,0,8.37-2.46L921,516a44.39,44.39,0,0,0-7-1.95Q910,513.27,905.16,512.7Z" transform="translate(-26.23 -34.14)"/><path class="cls-1" d="M943,524.16a18.23,18.23,0,0,0-4.69,4.19,67.78,67.78,0,0,0-5.74,7.62,102.16,102.16,0,0,0-5.33,9.12,38.23,38.23,0,0,0-3.38,8.66,8.59,8.59,0,0,0,.68,6.59c1.07,1.72,3.18,2.65,6.31,2.81a10.26,10.26,0,0,0,5.79-1.5,22.14,22.14,0,0,0,4.82-3.84,35.39,35.39,0,0,0,3.61-4.41,19.5,19.5,0,0,0,2-3.32,3.5,3.5,0,0,1,1.09-1.49,1.28,1.28,0,0,1,1-.35c.27.08.42.37.46.86a3.9,3.9,0,0,1-.63,2,75.57,75.57,0,0,1-5.16,8.6,48.93,48.93,0,0,1-6.14,7.28,29.68,29.68,0,0,1-6.93,5,16.48,16.48,0,0,1-7.57,1.89,15.24,15.24,0,0,1-7.11-1.61,12.77,12.77,0,0,1-4.93-4.42,15.28,15.28,0,0,1-2.29-6.7,22.15,22.15,0,0,1,.8-8.49,25.19,25.19,0,0,1,1.61-4.47q1.14-2.52,2.46-5.28c.88-1.82,1.76-3.66,2.63-5.5s1.65-3.61,2.3-5.33a29.82,29.82,0,0,0,1.38-4.7,6.23,6.23,0,0,0-.17-3.5l.57-.23H943Zm-4.24-24.76a10,10,0,0,1,5.74,1.37,5.41,5.41,0,0,1,2.34,3.5,8.06,8.06,0,0,1-.57,4.58,13.48,13.48,0,0,1-3.09,4.59,17.39,17.39,0,0,1-5.16,3.5,16,16,0,0,1-6.71,1.37,5.75,5.75,0,0,1-4.24-1.37,5.11,5.11,0,0,1-1.49-3.5,11,11,0,0,1,.85-4.59,17.05,17.05,0,0,1,2.76-4.58,15,15,0,0,1,4.24-3.5A10.74,10.74,0,0,1,938.75,499.4Z" transform="translate(-26.23 -34.14)"/><path class="cls-1" d="M1006.63,548.93a6.41,6.41,0,0,1,1.5-1.89c.45-.35.83-.44,1.14-.29s.46.5.46,1a5.11,5.11,0,0,1-.58,2.06,70.75,70.75,0,0,1-5,8.67,28.34,28.34,0,0,1-4.64,5.33,13.93,13.93,0,0,1-4.53,2.69,14.26,14.26,0,0,1-4.54.75,22,22,0,0,1-4-.35,11.1,11.1,0,0,1-3.5-1.26,27,27,0,0,1-8.37,5.67A26,26,0,0,1,964,573.46c-5.12,0-9.08-1.21-11.87-3.66a15.48,15.48,0,0,1-5.16-9.23,26.16,26.16,0,0,1,.92-12,36.68,36.68,0,0,1,6.13-12,35.08,35.08,0,0,1,10.72-9.23,29.24,29.24,0,0,1,14.63-3.67,9.44,9.44,0,0,1,4.46.92c.16-.69.69-1,1.61-1a4.42,4.42,0,0,1,1.83.57,11.62,11.62,0,0,1,5.17,5.62,22.5,22.5,0,0,1,1.89,8.49,34.15,34.15,0,0,1-1.21,9.92,39.61,39.61,0,0,1-4.13,9.92,5.39,5.39,0,0,0,3.11.8,21,21,0,0,0,3,0,9.09,9.09,0,0,0,3.5-1.1,15.94,15.94,0,0,0,4-3A25,25,0,0,0,1006.63,548.93Zm-25.11-21.1a9.44,9.44,0,0,0-5.73,2.35,28.94,28.94,0,0,0-5.51,5.85,38.4,38.4,0,0,0-4.24,7.63,25.45,25.45,0,0,0-2,7.62,9.54,9.54,0,0,0,1.2,5.91c1,1.6,2.79,2.45,5.39,2.52a14.23,14.23,0,0,0,3.21-.35,18.44,18.44,0,0,0,2.87-.91,9,9,0,0,1,.17-4,9.75,9.75,0,0,1,1.49-3.09,7.39,7.39,0,0,1,2.12-2,4.09,4.09,0,0,1,2.07-.69c1.21,0,1.79.8,1.72,2.41v.34a26.26,26.26,0,0,0,3.84-8.31,21.26,21.26,0,0,0,.62-8.55c-.15,0-.3-.11-.45-.34a2.81,2.81,0,0,1-.35-.69,9.82,9.82,0,0,0-2.64-4.18A5.52,5.52,0,0,0,981.52,527.83Z" transform="translate(-26.23 -34.14)"/><path class="cls-1" d="M1070.15,549.16c.54-1,1.07-1.49,1.61-1.49.38,0,.65.24.8.74a1.82,1.82,0,0,1-.11,1.43,103.22,103.22,0,0,1-8,13.88,33.78,33.78,0,0,1-6.59,7.22,12.29,12.29,0,0,1-5.73,2.64,26.08,26.08,0,0,1-5.45.12c-3.29-.24-5.77-1-7.45-2.36a9,9,0,0,1-3.27-5,17.65,17.65,0,0,1-.23-6.71,49.45,49.45,0,0,1,1.66-7.51c.76-2.52,1.61-5,2.53-7.46s1.65-4.6,2.23-6.47a18.68,18.68,0,0,0,.92-4.53c0-1.15-.44-1.76-1.43-1.83q-3.1-.12-6.37,2.63a38.8,38.8,0,0,0-6.31,6.94,77.57,77.57,0,0,0-5.67,9.17q-2.64,5-4.59,9.34t-3.09,7.52a21.48,21.48,0,0,0-1.15,3.61v2.18l-.23.22H995.62v-.22a23.77,23.77,0,0,0,3.39-5.11,78.75,78.75,0,0,0,3.49-7.73q1.72-4.36,3.33-9.41t2.81-9.92q1.2-4.87,2-9.22a41.82,41.82,0,0,0,.81-7.46l.57-.69h21.67v.46q-2.4,3.11-5.16,6.88a92.77,92.77,0,0,0-5.33,8.26,79.26,79.26,0,0,0-4.7,9.69,58.79,58.79,0,0,0-3.27,11.18,128.41,128.41,0,0,1,5.51-11.93,90.67,90.67,0,0,1,7.45-12,48.07,48.07,0,0,1,8.83-9.34,15.4,15.4,0,0,1,9.63-3.73q5.16,0,7.57,1.66a7.21,7.21,0,0,1,3,4.47,14.58,14.58,0,0,1-.17,6.37A70.5,70.5,0,0,1,1055,543q-1.34,3.79-2.76,7.52a39.09,39.09,0,0,0-2,6.76,10.72,10.72,0,0,0,0,5.11q.63,2.05,3.39,2.63a5.43,5.43,0,0,0,3.55-.57,16.43,16.43,0,0,0,3.61-2.52,28,28,0,0,0,3.38-3.68c1.08-1.37,2-2.67,2.87-3.89s1.53-2.31,2.06-3.27S1070,549.46,1070.15,549.16Z" transform="translate(-26.23 -34.14)"/><g class="cls-6"><path class="cls-1" d="M1131.94,538.85v7.45h-28.31v-7.45Z" transform="translate(-26.23 -34.14)"/></g><path class="cls-1" d="M1242.37,561.89a22.27,22.27,0,0,1,.06,8.88,33.83,33.83,0,0,1-3.1,9.58,22.65,22.65,0,0,1-5.85,7.45,11.67,11.67,0,0,1-8.31,2.75,14.59,14.59,0,0,1-6.19-1.49,20.87,20.87,0,0,1-5.1-3.61,30.68,30.68,0,0,1-4.3-5.1c-1.3-1.92-2.6-3.9-3.9-6-1,.38-2.28.87-3.84,1.44a27.58,27.58,0,0,1-7.63,1.08q-12.49.47-20.23-3.32a26.87,26.87,0,0,1-11.47-9.8,25.06,25.06,0,0,1-3.78-13.3A32.26,32.26,0,0,1,1170,525.54a23.54,23.54,0,0,1,12.79-5.62,12.63,12.63,0,0,1-3.84-5.33,11.35,11.35,0,0,1,0-7.4,23.6,23.6,0,0,1,5.22-9.34,31.75,31.75,0,0,1,8.37-6.54,41.88,41.88,0,0,1,10.26-3.9,46.56,46.56,0,0,1,10.89-1.31q11.82,0,19.21,4.58a27,27,0,0,1,10.72,11.93,36.13,36.13,0,0,1,3,16.51,53.78,53.78,0,0,1-4,18.28,66.89,66.89,0,0,1-10.32,17.27,59,59,0,0,1-15.82,13.53,23.25,23.25,0,0,0,10.43,2.63,16.69,16.69,0,0,0,8-2.06,21.42,21.42,0,0,0,7.17-6.88Zm-46.56-37.62a20.74,20.74,0,0,1-2.17-.11,22.18,22.18,0,0,1-2.29-.34,11.58,11.58,0,0,0-7.06,3.72,25.58,25.58,0,0,0-5.1,7.92,31.76,31.76,0,0,0-2.35,10,23.51,23.51,0,0,0,1.2,9.81,16,16,0,0,0,5.45,7.39q3.84,2.93,10.5,2.81l1.72-.17a3.21,3.21,0,0,0,1-.23c.26-.11.57-.23.92-.35l1.54-.51c-1.61-2.29-3.12-4.61-4.53-6.94a78.32,78.32,0,0,1-3.84-7.16l8.6-1.72q1.61,2.75,3.67,5.9a30.17,30.17,0,0,0,5.28,6,46.83,46.83,0,0,0,13.41-10.78,61.93,61.93,0,0,0,14.16-29.75,41.47,41.47,0,0,0,.23-14.05,19.61,19.61,0,0,0-4.76-10.26q-3.67-4-10.09-4a27.9,27.9,0,0,0-9.8,1.61,27.6,27.6,0,0,0-7.51,4.12,23.62,23.62,0,0,0-5.28,5.74,31.65,31.65,0,0,0-3.21,6.47,27,27,0,0,0-1.43,6.26,17.17,17.17,0,0,0,.17,5.16c2.68.69,4.07,1.37,4.19,2.06s-.75,1-2.59,1Z" transform="translate(-26.23 -34.14)"/><path class="cls-1" d="M1320.45,550.08a3.67,3.67,0,0,1,1.09-1.49,1.3,1.3,0,0,1,1-.35c.28.08.43.37.47.86a4,4,0,0,1-.64,2,64.64,64.64,0,0,1-5,8.6,47.42,47.42,0,0,1-6.19,7.28,30.48,30.48,0,0,1-7.05,5,16.62,16.62,0,0,1-7.52,1.89q-6.52,0-10.43-4t-4.12-10.79a49,49,0,0,1-8,10.55,14.31,14.31,0,0,1-10.32,4.25,15.91,15.91,0,0,1-7.06-1.49,11.13,11.13,0,0,1-4.75-4.36,15.07,15.07,0,0,1-2-7,25.2,25.2,0,0,1,1.5-9.28q1-3.33,2.52-7.29c1-2.63,1.87-5.23,2.64-7.79a53,53,0,0,0,1.66-7.29,10,10,0,0,0-.4-5.5l.46-.23H1281v.46a15.22,15.22,0,0,0-4.41,4.19,63.74,63.74,0,0,0-5.11,7.62,75.55,75.55,0,0,0-4.47,9.12,37.42,37.42,0,0,0-2.52,8.66,23,23,0,0,0-.34,3.78,6.33,6.33,0,0,0,.62,2.92,4.53,4.53,0,0,0,2,1.9,9.1,9.1,0,0,0,3.61.8,8.6,8.6,0,0,0,4.36-.86,14.36,14.36,0,0,0,3.56-2.53,20,20,0,0,0,2.81-3.37c.8-1.23,1.47-2.34,2-3.34v-.34a42.3,42.3,0,0,1,1.67-4.47q1.1-2.52,2.41-5.28c.87-1.82,1.76-3.66,2.63-5.5s1.65-3.61,2.29-5.33a27.83,27.83,0,0,0,1.38-4.7,6.15,6.15,0,0,0-.17-3.5l.58-.23h22.7v.46a18.08,18.08,0,0,0-4.71,4.19,73,73,0,0,0-5.78,7.62,93.79,93.79,0,0,0-5.39,9.12,37.31,37.31,0,0,0-3.38,8.66q-1,4,.62,6.59c1.11,1.72,3.2,2.65,6.25,2.81a10.5,10.5,0,0,0,5.85-1.5,21.28,21.28,0,0,0,4.87-3.84,35.51,35.51,0,0,0,3.62-4.41A19.28,19.28,0,0,0,1320.45,550.08Z" transform="translate(-26.23 -34.14)"/><path class="cls-1" d="M1391.09,550.08a3.42,3.42,0,0,1,1.09-1.49,1.29,1.29,0,0,1,1-.35c.26.08.41.35.46.8a4.34,4.34,0,0,1-.64,2.07,64.64,64.64,0,0,1-5,8.6,46.87,46.87,0,0,1-6.19,7.28,30.88,30.88,0,0,1-7,5,16.18,16.18,0,0,1-7.45,1.89q-6.76,0-10.72-4.19T1353,558.45a67.1,67.1,0,0,1-4.59,6,38.9,38.9,0,0,1-5,4.93,22.61,22.61,0,0,1-5.56,3.32,16.19,16.19,0,0,1-6.25,1.21c-4.52,0-7.76-1.27-9.75-3.79a15.26,15.26,0,0,1-3.1-9.4,34.74,34.74,0,0,1,2.24-12.21,48.35,48.35,0,0,1,6.42-12.22,41.3,41.3,0,0,1,9.35-9.4,18.45,18.45,0,0,1,10.89-3.78,16.94,16.94,0,0,1,9.74,2.58,22.29,22.29,0,0,1,5.86,5.56,20.2,20.2,0,0,0,1-4.18,5.86,5.86,0,0,0-.34-3.16l.57-.23h22.82v.46a18.24,18.24,0,0,0-4.7,4.19,74.41,74.41,0,0,0-5.79,7.62,85.91,85.91,0,0,0-5.33,9.12,39.74,39.74,0,0,0-3.32,8.66q-.93,4,.63,6.59c1,1.72,3.1,2.65,6.25,2.81a10.21,10.21,0,0,0,5.78-1.5,21.9,21.9,0,0,0,4.82-3.84,30.77,30.77,0,0,0,3.55-4.41A21.35,21.35,0,0,0,1391.09,550.08Zm-52.63,12.38a9.15,9.15,0,0,0,5.1-1.32,22.62,22.62,0,0,0,4.76-3.78,41.64,41.64,0,0,0,4.41-5.45q2.12-3.1,4-6.31,1.26-2.86,2.69-5.73A63.34,63.34,0,0,0,1362,534a10.85,10.85,0,0,0-3-2.23,11.13,11.13,0,0,0-5.16-1,8.54,8.54,0,0,0-5.33,2.35,31.72,31.72,0,0,0-5.33,5.85,53.93,53.93,0,0,0-4.53,7.57,37.92,37.92,0,0,0-2.87,7.57,13.12,13.12,0,0,0-.34,5.85A2.92,2.92,0,0,0,1338.46,562.46Z" transform="translate(-26.23 -34.14)"/><path class="cls-1" d="M1436.26,487.93a50.79,50.79,0,0,0-5.9,8.08q-3,5-6,10.84c-2,3.89-3.9,7.93-5.74,12.09s-3.49,8.15-5,11.93-2.74,7.21-3.78,10.27-1.77,5.46-2.23,7.22a34.86,34.86,0,0,0-.69,4.59,18.67,18.67,0,0,0,.12,4.75,7.94,7.94,0,0,0,1.54,3.78,4.46,4.46,0,0,0,3.5,1.67,10.54,10.54,0,0,0,5.85-1.5,24.13,24.13,0,0,0,5-3.84,31.24,31.24,0,0,0,3.72-4.41,19.5,19.5,0,0,0,1.95-3.32,3.5,3.5,0,0,1,1.09-1.49,1.29,1.29,0,0,1,1-.35c.27.08.42.37.46.86a4,4,0,0,1-.63,2,64.68,64.68,0,0,1-5.16,8.71,47.24,47.24,0,0,1-6.36,7.4,31.12,31.12,0,0,1-7.12,5,14.36,14.36,0,0,1-7.5,1.67,14,14,0,0,1-7.69-2.59,15,15,0,0,1-4.87-6,20.41,20.41,0,0,1-1.78-8.08,24.77,24.77,0,0,1,1.49-8.94c.46-1.3,1.27-3.16,2.41-5.57s2.45-5.17,3.9-8.31,3-6.57,4.65-10.32,3.19-7.64,4.64-11.7,2.75-8.18,3.9-12.38a93.78,93.78,0,0,0,2.52-12.38l.45-.34h22.25Z" transform="translate(-26.23 -34.14)"/><path class="cls-1" d="M1460.45,524.16a18.24,18.24,0,0,0-4.7,4.19A69,69,0,0,0,1450,536a102.24,102.24,0,0,0-5.34,9.12,38.63,38.63,0,0,0-3.37,8.66,8.55,8.55,0,0,0,.68,6.59c1.07,1.72,3.18,2.65,6.31,2.81a10.26,10.26,0,0,0,5.79-1.5,22.14,22.14,0,0,0,4.82-3.84,35.39,35.39,0,0,0,3.61-4.41,20.21,20.21,0,0,0,2-3.32,3.5,3.5,0,0,1,1.09-1.49,1.28,1.28,0,0,1,1-.35c.27.08.42.37.46.86a3.84,3.84,0,0,1-.64,2,75.57,75.57,0,0,1-5.16,8.6,48.88,48.88,0,0,1-6.13,7.28,29.68,29.68,0,0,1-6.93,5,16.48,16.48,0,0,1-7.57,1.89,15.21,15.21,0,0,1-7.11-1.61,12.77,12.77,0,0,1-4.93-4.42,15.16,15.16,0,0,1-2.29-6.7,22.15,22.15,0,0,1,.8-8.49,25.88,25.88,0,0,1,1.6-4.47q1.15-2.52,2.46-5.28c.89-1.82,1.77-3.66,2.64-5.5s1.65-3.61,2.3-5.33a28.67,28.67,0,0,0,1.37-4.7,6.06,6.06,0,0,0-.17-3.5l.58-.23h22.58Zm-4.24-24.76a10,10,0,0,1,5.74,1.37,5.41,5.41,0,0,1,2.34,3.5,8.06,8.06,0,0,1-.57,4.58,13.48,13.48,0,0,1-3.09,4.59,17.39,17.39,0,0,1-5.16,3.5,16,16,0,0,1-6.71,1.37,5.75,5.75,0,0,1-4.24-1.37,5.11,5.11,0,0,1-1.49-3.5,11,11,0,0,1,.85-4.59,17.05,17.05,0,0,1,2.76-4.58,15,15,0,0,1,4.24-3.5A10.71,10.71,0,0,1,1456.21,499.4Z" transform="translate(-26.23 -34.14)"/><path class="cls-1" d="M1496.11,512.7q-2.62,5-5.16,10.32t-4.53,10.09q-2,4.8-3.49,8.83a58.41,58.41,0,0,0-2.07,6.42,45.09,45.09,0,0,0-.74,4.59,17.47,17.47,0,0,0,.06,4.75,8.42,8.42,0,0,0,1.48,3.78,4.43,4.43,0,0,0,3.56,1.67,10.55,10.55,0,0,0,5.79-1.5,23.23,23.23,0,0,0,5-3.84,34.11,34.11,0,0,0,3.78-4.41,18.19,18.19,0,0,0,2-3.32,3.5,3.5,0,0,1,1.09-1.49,1.28,1.28,0,0,1,1-.35c.27.08.42.37.46.86a3.9,3.9,0,0,1-.63,2,67.51,67.51,0,0,1-5.1,8.71,43.86,43.86,0,0,1-6.37,7.4,31.63,31.63,0,0,1-7.22,5,15,15,0,0,1-7.69,1.67,13.63,13.63,0,0,1-7.62-2.59,14.31,14.31,0,0,1-4.7-6,21.09,21.09,0,0,1-1.61-8.08,24,24,0,0,1,1.67-8.94,52.63,52.63,0,0,1,2.69-5.8q1.89-3.6,4.3-8.37c1.61-3.16,3.29-6.63,5-10.37s3.36-7.68,4.81-11.81h-10.43c-3.29,0-6.19.07-8.71.23l3.54-9.52c2.45.84,5.09,1.63,7.92,2.35s5.89,1.36,9.17,1.89q.91-3.21,1.67-6.71a65.44,65.44,0,0,0,1.08-6.93l.46-.23h22.13v.46a53.44,53.44,0,0,0-5,6.42q-2.47,3.66-5.11,8.14a74.24,74.24,0,0,0,9-1,37.13,37.13,0,0,0,8.37-2.46L1511.94,516a44.23,44.23,0,0,0-7-1.95Q1500.94,513.27,1496.11,512.7Z" transform="translate(-26.23 -34.14)"/><path class="cls-1" d="M1570.64,548.93c.62-.92,1.23-1.38,1.84-1.38a1.16,1.16,0,0,1,1.2.81,2.59,2.59,0,0,1-.4,2.06,49.78,49.78,0,0,1-14.39,14.22A112.55,112.55,0,0,1,1539.23,575q-2.07,4.69-3.68,8.54c-1.06,2.56-2,4.83-2.86,6.82a59.17,59.17,0,0,1-4.13,8.08,38.79,38.79,0,0,1-6.59,8.2,34.67,34.67,0,0,1-9.29,6.31,26.08,26.08,0,0,1-12.21,2.29,14.38,14.38,0,0,1-7.85-2.23,13,13,0,0,1-4.65-5.33,14,14,0,0,1-1.14-7.22,18.24,18.24,0,0,1,2.63-7.86,27.1,27.1,0,0,1,6.71-7.29,34.44,34.44,0,0,1,11.18-5.5q5.39-1.6,11.29-3.44t11.75-3.89q1.62-4.59,3.39-9.69t3.39-10.27a87.42,87.42,0,0,1-5.23,7.92,53.33,53.33,0,0,1-5.84,6.7,32.19,32.19,0,0,1-6.14,4.71,13.42,13.42,0,0,1-6.19,1.89,14,14,0,0,1-6.82-1.38,11,11,0,0,1-4.59-4.3,15.85,15.85,0,0,1-2-6.82,26.64,26.64,0,0,1,1-9.17c.54-1.91,1.28-4.19,2.24-6.83s1.84-5.27,2.69-7.91,1.55-5.16,2.12-7.56a13.8,13.8,0,0,0,.4-5.8l.57-.23h24.31v.46a28.68,28.68,0,0,0-5.1,3.73,50.87,50.87,0,0,0-6.48,6.82,52.67,52.67,0,0,0-5.73,8.95,25.76,25.76,0,0,0-2.87,10.09,9.45,9.45,0,0,0,.46,3.72,8,8,0,0,0,1.55,2.76,7.35,7.35,0,0,0,2.23,1.71,7.1,7.1,0,0,0,2.41.75,7.65,7.65,0,0,0,4.59-1.49,23.65,23.65,0,0,0,4.76-4.36,49.73,49.73,0,0,0,4.52-6.31c1.46-2.36,2.79-4.75,4-7.16s2.29-4.76,3.21-7.06a53.06,53.06,0,0,0,2.06-6,23.6,23.6,0,0,0,.69-4,7.43,7.43,0,0,0-.11-2.41l.46-.23h22.7v.46a45.67,45.67,0,0,0-4.82,6.59q-2.87,4.54-6.13,10.49T1549.43,554q-3.43,6.83-6.53,13.47,4.57-1.95,8.77-4.06c2.78-1.42,5.39-2.89,7.8-4.42a52.45,52.45,0,0,0,6.48-4.82A27.38,27.38,0,0,0,1570.64,548.93ZM1525,586.65c.3-.61.69-1.53,1.15-2.75s1-2.6,1.6-4.13q-4.82,1.72-9.46,3.44t-8.89,3.44a10.93,10.93,0,0,0-4.93,3.67,7.68,7.68,0,0,0-1.55,4.59,5.82,5.82,0,0,0,1.84,4.07,7.9,7.9,0,0,0,5.22,2,9.93,9.93,0,0,0,8.19-2.81Q1521.57,594.91,1525,586.65Z" transform="translate(-26.23 -34.14)"/><path id="since_2018" data-name="since 2018" class="cls-5" d="M636.74,639.38a3.87,3.87,0,0,1-.9,1.32,1.67,1.67,0,0,1-1.06.3,13.07,13.07,0,0,1-2.9-.64,19.94,19.94,0,0,0-5.58-1,11.71,11.71,0,0,0-8.54,3.24,10.78,10.78,0,0,0-3.3,8,9.56,9.56,0,0,0,1.92,6.14q1.9,2.46,8.09,5.53a36.36,36.36,0,0,1,8.24,5.08,6.59,6.59,0,0,1,2.07,4.94,5.5,5.5,0,0,1-1.85,4.16,6.82,6.82,0,0,1-4.8,1.72,11,11,0,0,1-7.54-3,15.88,15.88,0,0,1-4.55-9h-1.41v13.93H616a1.67,1.67,0,0,1,1.53-1.11,8.2,8.2,0,0,1,2.3.43,31.09,31.09,0,0,0,8.18,1.28,14,14,0,0,0,9-3.27,10.49,10.49,0,0,0,4-8.58q0-6.9-8.65-11.12l-6.22-3a15.15,15.15,0,0,1-5.37-3.71,6.37,6.37,0,0,1-1.37-4.09,4.57,4.57,0,0,1,1.84-3.49,7.11,7.11,0,0,1,4.81-1.58,9.32,9.32,0,0,1,6.45,2.26c1.7,1.51,3.08,4.34,4.16,8.52h1.4V639.39h-1.4Zm17-19.15a4.33,4.33,0,1,0,6.13,6.12,4.22,4.22,0,0,0,1.26-3.07,4.29,4.29,0,0,0-4.28-4.3h0A4.2,4.2,0,0,0,653.72,620.23Zm4.75,19.15-11.76,4.78.6,1.53a8.72,8.72,0,0,1,2.89-.64,2.68,2.68,0,0,1,1.75.54,3.34,3.34,0,0,1,.94,1.89,52.57,52.57,0,0,1,.38,8.22v15a13.74,13.74,0,0,1-.57,4.9,3.82,3.82,0,0,1-1.56,1.83,8.78,8.78,0,0,1-3.83.56v1.53h19V678a8.6,8.6,0,0,1-3.82-.6,3.7,3.7,0,0,1-1.57-1.81,14.4,14.4,0,0,1-.54-4.88V639.39h-1.87Zm24,0h-1.83l-11.76,4.78.64,1.53a8.21,8.21,0,0,1,2.85-.64,2.68,2.68,0,0,1,1.77.56,3.64,3.64,0,0,1,1,2.09,62.71,62.71,0,0,1,.32,8.56v14.48a11,11,0,0,1-1,5.77,4.56,4.56,0,0,1-4,1.51h-.86v1.54h19.3V678a10,10,0,0,1-4.24-.57,4,4,0,0,1-1.64-1.81,14.73,14.73,0,0,1-.47-4.9V650.17q5-5.53,10.1-5.54a4.93,4.93,0,0,1,4.66,2.41,16.17,16.17,0,0,1,1.39,7.73v16a25.58,25.58,0,0,1-.17,4A4.39,4.39,0,0,1,697,677.2a6.53,6.53,0,0,1-3.82.83h-.81v1.53h19.3V678a8.59,8.59,0,0,1-3.85-.6,3.43,3.43,0,0,1-1.51-1.66,13.83,13.83,0,0,1-.6-5V654.08a24.44,24.44,0,0,0-.94-7.84,10.66,10.66,0,0,0-3.66-5.26,9.42,9.42,0,0,0-5.5-1.6q-6.21,0-13.08,8.27v-8.27Zm64.16,24.75a19.37,19.37,0,0,1-4.56,7.12,11.2,11.2,0,0,1-7.5,2.85,10.51,10.51,0,0,1-9.26-5.34,22.34,22.34,0,0,1-3.44-12.34,16.79,16.79,0,0,1,3.45-11,8.45,8.45,0,0,1,6.86-3.15,6.08,6.08,0,0,1,4.13,1.28,5.53,5.53,0,0,1,1.73,3.83,6.72,6.72,0,0,0,1,3.41,4.58,4.58,0,0,0,3.79,1.62,4.09,4.09,0,0,0,2.92-1,3.48,3.48,0,0,0,1-2.62q0-3.28-3.7-6.33a14.38,14.38,0,0,0-9.46-3,17.56,17.56,0,0,0-13.14,5.75,20.83,20.83,0,0,0-5.47,15q0,9.49,4.94,15.07a15.05,15.05,0,0,0,11.59,5.59,14.88,14.88,0,0,0,10.18-4.16,21.11,21.11,0,0,0,6.18-11.86Zm40.34-8.9a15.88,15.88,0,0,0-4.21-11.57A14.44,14.44,0,0,0,772,639.33a16.76,16.76,0,0,0-12.89,5.61Q754,650.53,754,660.55q0,9.24,5,14.72a15.75,15.75,0,0,0,12,5.47A13.85,13.85,0,0,0,781.8,676a20.32,20.32,0,0,0,5.2-10.63l-1.32-.85a15.57,15.57,0,0,1-4.75,7.22,10.86,10.86,0,0,1-6.67,2.11,12.89,12.89,0,0,1-10-4.94q-4.26-5-4.22-13.64h27Zm-23.7-10.12a8.79,8.79,0,0,1,6.32-2.75,8.06,8.06,0,0,1,4.41,1.37,8.39,8.39,0,0,1,3.17,3.75,16.63,16.63,0,0,1,.9,5.28H760a11.9,11.9,0,0,1,3.25-7.65Zm86.41,23.33a8.91,8.91,0,0,1-2.6,3,8.32,8.32,0,0,1-3.34,1.38,41,41,0,0,1-6.45.34H822.24q2.64-2.39,13.24-14a57.82,57.82,0,0,0,10.23-14.61,20.7,20.7,0,0,0,2-8.78,14.27,14.27,0,0,0-4.7-10.65,16.39,16.39,0,0,0-11.75-4.52,15.34,15.34,0,0,0-11,4.22,19.81,19.81,0,0,0-5.48,12.09h1.58a14.41,14.41,0,0,1,5-7.3,12.56,12.56,0,0,1,7.65-2.49,10.74,10.74,0,0,1,8.06,3.53,12.63,12.63,0,0,1,3.36,9q0,7.2-6.14,15.89T813.16,678v1.58h34.08l4-11.12h-1.57Zm13,2.38q5.49,9.76,13.75,9.76a15.18,15.18,0,0,0,8.67-3.17,22.46,22.46,0,0,0,7.39-10.21,44.65,44.65,0,0,0,2.9-17.08q0-14.36-6.6-22.75-5.28-6.76-11.93-6.77a13.41,13.41,0,0,0-7.93,2.77A23.83,23.83,0,0,0,861,634a43.77,43.77,0,0,0-3,17,39.47,39.47,0,0,0,4.64,19.81Zm4.81-33.69q1.11-7.59,4.18-11.12a6.7,6.7,0,0,1,5.15-2.6,6.52,6.52,0,0,1,4.22,1.41,14.59,14.59,0,0,1,4,6.94,57,57,0,0,1,2,16.49,84.88,84.88,0,0,1-2,20.66,13.19,13.19,0,0,1-3.75,6.92,7.63,7.63,0,0,1-4.78,2.07q-4.82,0-7.24-6.35a54.58,54.58,0,0,1-2.94-19.47,105.62,105.62,0,0,1,1.1-15Zm41.87-8.35a11.3,11.3,0,0,1,4.39-1.32,2.82,2.82,0,0,1,1.89.64,3.24,3.24,0,0,1,1.09,2,45.64,45.64,0,0,1,.44,8.09v31.19a22.57,22.57,0,0,1-.48,6.24,3.48,3.48,0,0,1-1.66,1.66,14.53,14.53,0,0,1-5.28.7v1.58h21.73V678a14.42,14.42,0,0,1-5.21-.72,3.17,3.17,0,0,1-1.67-1.83,26.14,26.14,0,0,1-.4-6V620.59h-1.42l-14,6.87Zm40.62,30a12.79,12.79,0,0,0,1.09,16.64q4.6,5.16,12.82,5.15a17.09,17.09,0,0,0,12.18-4.33,13.68,13.68,0,0,0,4.65-10.41,15.13,15.13,0,0,0-3.23-9.16,54.41,54.41,0,0,0-9.93-9.12q7.29-4.56,9.59-7.92a11.76,11.76,0,0,0,2.3-6.61,11.3,11.3,0,0,0-4.26-8.64,18.49,18.49,0,0,0-22.79.27,12.89,12.89,0,0,0-4.35,9.69,14.08,14.08,0,0,0,2,7.08c1.33,2.27,4.27,5.28,8.86,9a37.19,37.19,0,0,0-8.91,8.34Zm8.6-18.68a15.65,15.65,0,0,1-3.23-4.22,9.74,9.74,0,0,1-1.13-4.43,7.79,7.79,0,0,1,2.73-5.88,10,10,0,0,1,7.08-2.51,9.22,9.22,0,0,1,6.85,2.54,9.49,9.49,0,0,1,2.52,7,13.1,13.1,0,0,1-1.37,6,30.11,30.11,0,0,1-6.47,7.27Zm14.52,23.77a9.78,9.78,0,0,1,1.62,5.5,8.39,8.39,0,0,1-2.77,6.31,10.37,10.37,0,0,1-7.37,2.59A9.87,9.87,0,0,1,957,675a12.58,12.58,0,0,1-3-8.8,17,17,0,0,1,1.72-7.6,20,20,0,0,1,5.24-6.5q9.2,7.29,12.22,11.8Z" transform="translate(-26.23 -34.14)"/></svg>